<?xml version="1.0" encoding="utf-8"?>
<!-- Generator: Adobe Illustrator 27.3.1, SVG Export Plug-In . SVG Version: 6.00 Build 0)  -->
<svg version="1.1" id="Layer_1" xmlns="http://www.w3.org/2000/svg" xmlns:xlink="http://www.w3.org/1999/xlink" x="0px" y="0px"
	 viewBox="0 0 47.3 59.7" style="enable-background:new 0 0 47.3 59.7;" xml:space="preserve">
<style type="text/css">
	.st0{fill:#FFFFFF;}
</style>
<g transform="translate(0.000000,512.000000) scale(0.100000,-0.100000)">
	<path class="st0" d="M225.6,5119.2c-5.2-1.4-12.9-5.1-17.8-8.9c-4.4-3.5-12.4-6.3-17.5-6.3c-2.1,0-7.3,0.8-11.8,1.9
		c-11.4,2.7-20.9,1.6-31.5-3.6c-8.4-4.1-12.9-8.4-21.7-20.3c-4.7-6.5-12-10.4-22.5-11.9c-20.2-2.8-36.4-17.4-40.2-36
		c-2.6-12.6-8-19.7-19.6-25.5c-7.2-3.7-15.4-12.4-19.5-20.5c-3.3-6.8-3.4-7.5-3.5-25.1c0-20.2-0.6-22.2-7.6-30.6
		c-14.5-17.3-16.2-35-5.6-56.4c5.7-11.5,6.3-18.7,2.3-30.1c-6.6-18.9-0.7-38.1,16.3-53.1c8.9-7.8,11-12.4,12.6-27.4
		c2.3-22.5,12.7-35.2,35-42.8c7-2.4,14.1-7.3,14.1-9.7c0-0.8-11.1-28.2-24.6-60.9c-23.2-56-24.6-59.7-24.1-65.4
		c0.7-7.6,5.1-13.8,12.4-16.9c7-3.1,9.3-2.7,41.5,7.2c20.1,6.2,27.1,7.9,28.2,6.9c0.8-0.7,7.3-12.4,14.6-25.9
		c7.1-13.6,14.3-26.2,16.1-28.1c8-8.7,21.3-8.6,29.6,0.1c2.2,2.4,11.3,23,28.7,65c14.1,33.8,25.9,61.8,26.2,62.2
		c0.3,0.5,1,0.5,1.4,0c0.3-0.4,12.1-28.3,26.1-62.2c17.5-42.1,26.6-62.5,28.8-65c8.3-8.7,21.6-8.9,29.6-0.1
		c1.7,1.9,9,14.5,16.1,28.1c7.2,13.5,13.8,25.2,14.7,26c1.2,0.9,7.8-0.7,28.2-7c32.2-9.9,34.4-10.4,41.4-7.2
		c7.2,3.1,11.7,9.3,12.4,16.9c0.5,5.7-0.9,9.4-24.1,65.4c-13.5,32.6-24.6,60.1-24.6,60.9c0,2.3,7.1,7.2,14.1,9.7
		c10.1,3.5,16.1,6.9,21.9,12.8c8.2,8,11.7,16.1,13.1,30c1.6,15,3.7,19.6,12.6,27.4c17.3,15,22.6,32.9,16.2,53.1
		c-3.8,12.4-3.4,18.4,2.6,30.2c10.5,21.3,8.7,39.2-5.7,56.3c-7.2,8.5-8.4,13.2-7.6,29.9c0.7,12.5,0.5,14.9-1.6,21
		c-3.1,8.7-10.3,18.1-17,22.4c-2.9,1.9-7.7,4.9-10.6,6.6c-6.4,4.1-10.6,10.8-13.3,21.6c-4.9,19.9-19.9,33.5-40.2,36.3
		c-10.4,1.5-17.8,5.4-22.5,11.9c-8.7,11.9-13.3,16.2-21.7,20.3c-10.6,5.2-20.1,6.3-31.5,3.6c-4.4-1-9.7-1.9-11.8-1.9
		c-5.2,0-13.1,2.9-17.8,6.5c-7.5,5.7-16.2,8.9-25.8,9.3C234.1,5120.2,228,5119.8,225.6,5119.2z M245.9,5101.2c2.7-1,6.8-3.1,8.9-4.8
		c11.5-8.9,24.6-11.3,41.2-7.9c9,1.7,11.4,1.9,16.1,0.6c7.9-2.1,13.5-6.2,18.8-13.9c8-12,17.7-18.5,31-21.1
		c21.7-4.3,27.5-9.1,32.1-26.4c4.2-15.9,12-26.2,24.6-32.6c6.9-3.6,12.5-9.2,15.2-15.3c1.9-4,2.1-7.5,1.9-21.6
		c-0.2-15.6,0-17.3,2.7-23.2c1.5-3.5,5-9.1,7.7-12.4c7.8-9.6,9.1-12.8,9.1-22c0-7.2-0.5-9.2-4.9-17.5c-7.5-14.6-8.5-26.7-3.3-41.3
		c2.6-6.9,2.3-17-0.3-23c-1.3-2.7-4.4-6.9-7.2-9.3c-15.6-14-19-20.3-21.3-38.9c-2.3-18.4-7.7-26.2-21.1-30.3
		c-14.6-4.4-25.1-13.4-31.3-26.8c-5-10.6-8-14.2-15-18.1c-5.4-2.9-7.2-3.3-18.9-3.5c-18-0.3-24.5-2.9-37.4-14.6
		c-4.3-4-9.7-7.9-11.8-8.9c-6.6-2.8-16-2.1-25.9,2.1c-7.9,3.3-10.3,3.7-20.1,3.7s-12.1-0.5-20.1-3.7c-9.9-4.2-19.2-4.9-25.9-2.1
		c-2.1,0.9-7.5,4.9-11.8,8.9c-12.9,11.7-19.5,14.2-37.4,14.6c-11.7,0.2-13.5,0.6-18.9,3.5c-7,3.8-10,7.5-15,18.1
		c-6.2,13.4-16.7,22.4-31.3,26.8c-13.4,4.1-18.8,11.8-21,30.2c-2.3,18.7-5.7,24.8-21.5,39.2c-2.8,2.6-6.1,6.8-7.2,9.3
		c-2.7,5.8-2.8,16.1-0.3,22.9c5.2,14.6,4.2,26.7-3.3,41.3c-4.4,8.3-4.9,10.3-4.9,17.5c0,9.2,1.3,12.5,9.1,22
		c2.7,3.3,6.2,8.9,7.7,12.4c2.7,5.9,2.9,7.6,2.7,23.2c-0.2,14.1,0,17.6,1.9,21.6c2.7,6.1,8.3,11.7,15.2,15.3
		c12.5,6.4,20.4,16.8,24.6,32.5c2.7,9.9,4.9,13.9,10.7,18.8c4.7,4,7.5,5,18.4,6.9c15.2,2.7,25.4,9.3,33.9,21.9
		c5.2,7.7,10.8,11.8,18.8,13.9c4.7,1.3,7.1,1.2,16.1-0.6c16.6-3.4,29.6-0.9,41.2,7.9C226.3,5102.7,236.5,5104.4,245.9,5101.2z
		 M100.3,4690.8c1.2-3,12.4-11,19.1-13.5c5.2-2.1,9.6-2.7,19.6-2.8c15.2-0.4,18.9-1.7,30-12c3.8-3.5,9.9-7.8,13.6-9.6
		c5.7-2.7,8-3,18.5-3c10.1,0,11.8-0.2,11.3-1.7c-4.1-11-43.4-104.8-44.4-106c-0.8-0.8-2.2-1.3-3.1-0.9c-0.9,0.4-7.6,12-14.9,26
		c-7.3,13.9-15,27.1-17,29.2c-4.3,4.3-11.7,6.9-17.1,5.8c-2.1-0.3-15.6-4.4-30.3-9c-14.7-4.4-27.4-7.9-28.3-7.5
		c-1.2,0.4-1.6,1.6-1.3,3.3c0.8,4,42.2,103.4,43,103.4C99.4,4692.4,100,4691.7,100.3,4690.8z M395.6,4642.1
		c11.4-27.8,21.1-51.7,21.3-53.1c0.3-1.6-0.1-2.9-1.2-3.3c-1-0.5-13.6,3-28.2,7.5c-14.6,4.5-28.2,8.5-30.3,8.9
		c-5.7,1.2-13.1-1.3-17.4-5.7c-2-2.1-9.8-15.3-17-29.3c-7.3-13.9-14.1-25.7-15-25.9c-0.8-0.3-2.2,0.1-3,0.9c-1,1.2-40.3,95-44.4,106
		c-0.5,1.5,1.2,1.7,11.3,1.7c10.6,0,12.8,0.3,18.9,3.3c3.7,1.7,10,6.2,14.1,9.9c10.5,9.8,13.8,11.1,29.2,11.4
		c10,0.1,14.3,0.7,19.6,2.8c6.8,2.6,18,10.5,19.1,13.5c0.3,0.9,0.9,1.6,1.4,1.6S384,4669.7,395.6,4642.1z"/>
	<path class="st0" d="M208.4,5057c-54.2-9.7-98.8-41.4-125.6-89.3c-9-15.9-18.8-46.5-19.4-60.3c-0.2-5.5,0.1-6.6,2.6-8.6
		c3.5-2.8,8.9-2.8,11.5-0.1c1.4,1.4,2.9,6.2,4.2,13.2c11.5,63.4,58,111.5,122.6,126.5c7.5,1.7,13.9,2.2,32.7,2.2
		c21.5,0,24.3-0.2,35.9-3.3c46.1-11.5,83.5-41.4,104.5-83.4c5.2-10.4,11.3-29.2,13.6-42.1c1.3-7,2.8-11.8,4.2-13.2
		c2.7-2.7,8-2.7,11.5,0.1c3.4,2.7,3.4,7.3,0.5,21.5c-14,67.5-66.8,120.2-135.8,135.5C259.5,5058.4,220.5,5059.1,208.4,5057z"/>
	<path class="st0" d="M231.2,5009.6c-7-2.1-9.2-6.1-21.6-40.2c-6.5-18-12.2-33.1-12.7-33.6s-15.9-1.4-34-2.1
		c-18.2-0.6-34.9-1.4-37-1.7c-5.4-0.8-11.5-6.6-13.2-12.4c-1-3.8-0.8-5.7,0.7-9.9c1.7-4.5,5-7.5,30.4-27.3
		c15.6-12.2,28.5-22.6,28.5-23c0-0.5-4.2-15.5-9.3-33.5c-5.1-18-9.3-34.7-9.3-37.3c0-10.8,10.8-18.8,20.9-15.4
		c2.3,0.8,17,10,32.4,20.4c15.5,10.4,28.8,18.9,29.5,18.9c0.7,0,14-8.5,29.5-18.9c15.4-10.4,30.1-19.6,32.4-20.4
		c10-3.4,20.9,4.5,20.9,15.4c0,2.6-4.2,19.4-9.3,37.3c-5.1,18-9.3,33-9.3,33.4c0,0.5,12.8,10.8,28.3,23
		c30.2,23.6,31.8,25.3,31.6,34.4c-0.2,4.9-2.8,9.2-7.9,12.9c-2.9,2.2-5.6,2.6-29,3.4c-14.2,0.5-30.9,1.3-37,1.7l-11,0.8l-11.8,32.2
		c-6.5,17.7-12.7,33.6-13.8,35.2C246.1,5009,238.3,5011.7,231.2,5009.6z M248.7,4958.2c6.3-17.4,12.5-32.9,13.8-34.4
		c4.4-5.7,6.6-6.2,42.9-7.5c18.9-0.7,34.7-1.4,35.3-1.6c0.6-0.1-11.3-9.9-26.5-21.7c-15-11.9-28.3-23-29.3-24.7
		c-1-1.6-1.9-5-1.9-7.6c0-2.4,4.1-18.9,9.2-36.5c5-17.6,9-32.2,8.9-32.4c-0.2-0.2-13.1,8-28.6,18.4c-15.6,10.5-30.1,19.5-32.2,20.2
		c-2.7,0.8-5.2,0.8-7.8,0c-2.1-0.6-16.6-9.7-32.2-20.1c-15.5-10.4-28.5-18.8-28.7-18.5c-0.1,0.2,3.8,14.8,8.9,32.4
		c5.1,17.6,9.2,34.2,9.2,36.7c0,2.6-0.9,6.1-2.1,7.8c-1.2,1.7-14.3,12.7-29.3,24.5c-14.9,11.7-26.7,21.3-26.2,21.6
		c0.6,0.1,16.4,0.8,35.3,1.5c36.3,1.3,38.5,1.7,42.9,7.5c1.3,1.5,7.5,17,13.8,34.4c6.3,17.4,11.8,31.6,12.2,31.6
		C236.9,4989.8,242.4,4975.6,248.7,4958.2z"/>
	<path class="st0" d="M66.5,4870.4c-3.8-3.4-4-7.8-0.5-23.7c7.5-33.2,22.4-60.1,47.2-85c25.8-25.7,53.5-40.7,89.8-48.5
		c16.9-3.6,49.8-3.6,66.7,0c36.4,7.8,63.9,22.7,89.8,48.5c24.8,24.8,39.4,51.1,47,84.7c4.1,18.2,4.1,19.5,0.2,23.4
		c-4.1,4.1-7.1,4.3-11.1,0.8c-2.4-2.2-3.3-4.8-4.8-13.5c-5-29.5-19.7-58.4-41.2-80.9c-21.5-22.4-48.4-37.5-79.9-44.9
		c-11.4-2.7-15.5-3.1-33.5-3.1s-22,0.5-33.5,3.1c-29.5,6.9-54,19.9-75.4,40.5c-23.3,22.3-40.5,54.3-45.7,85.6
		c-1.4,8.5-2.3,11.1-4.7,13.3C73.4,4873.9,70.6,4873.9,66.5,4870.4z"/>
</g>
</svg>
