<?xml version="1.0" encoding="utf-8"?>
<!-- Generator: Adobe Illustrator 27.3.1, SVG Export Plug-In . SVG Version: 6.00 Build 0)  -->
<svg version="1.1" id="Layer_1" xmlns="http://www.w3.org/2000/svg" xmlns:xlink="http://www.w3.org/1999/xlink" x="0px" y="0px"
	 viewBox="0 0 29.6 37.3" style="enable-background:new 0 0 29.6 37.3;" xml:space="preserve">
<style type="text/css">
	.st0{fill:#FFFFFF;}
</style>
<g transform="translate(0.000000,512.000000) scale(0.100000,-0.100000)">
	<path class="st0" d="M141.2,5119.5c-3.3-0.9-8.1-3.2-11.2-5.5c-2.8-2.2-7.7-3.9-10.9-3.9c-1.3,0-4.6,0.5-7.4,1.2
		c-7.2,1.7-13.1,1-19.7-2.3c-5.3-2.6-8.1-5.3-13.6-12.7c-2.9-4.1-7.5-6.5-14.1-7.4c-12.6-1.8-22.8-10.9-25.2-22.5
		c-1.6-7.9-5-12.3-12.3-16c-4.5-2.3-9.6-7.7-12.2-12.8c-2-4.2-2.1-4.7-2.2-15.7c0-12.6-0.4-13.9-4.7-19.1
		c-9-10.8-10.1-21.9-3.5-35.3c3.6-7.2,3.9-11.7,1.5-18.8c-4.2-11.8-0.4-23.9,10.2-33.2c5.5-4.9,6.9-7.7,7.9-17.1
		c1.5-14.1,8-22,21.9-26.8c4.4-1.5,8.8-4.6,8.8-6.1c0-0.5-6.9-17.7-15.4-38.1c-14.5-35-15.4-37.4-15.1-40.9
		c0.4-4.7,3.2-8.6,7.7-10.6c4.4-2,5.8-1.7,26,4.5c12.6,3.9,16.9,5,17.7,4.3c0.5-0.4,4.6-7.7,9.1-16.2c4.5-8.5,9-16.4,10.1-17.6
		c5-5.5,13.4-5.4,18.5,0.1c1.4,1.5,7.1,14.4,18,40.6c8.8,21.2,16.2,38.7,16.4,38.9c0.2,0.3,0.7,0.3,0.9,0
		c0.2-0.2,7.6-17.7,16.3-38.9c10.9-26.3,16.6-39.1,18-40.6c5.2-5.5,13.5-5.5,18.5-0.1c1.1,1.2,5.6,9,10.1,17.6
		c4.5,8.5,8.6,15.8,9.2,16.3c0.7,0.6,4.9-0.4,17.7-4.4c20.1-6.2,21.5-6.5,25.9-4.5c4.5,2,7.3,5.8,7.7,10.6
		c0.3,3.6-0.6,5.9-15.1,40.9c-8.5,20.4-15.4,37.6-15.4,38.1c0,1.5,4.5,4.5,8.8,6.1c6.3,2.2,10.1,4.3,13.7,8c5.1,5,7.3,10.1,8.2,18.8
		c1,9.4,2.3,12.3,7.9,17.1c10.8,9.4,14.2,20.6,10.1,33.2c-2.4,7.7-2.1,11.5,1.6,18.9c6.6,13.4,5.5,24.5-3.6,35.2
		c-4.5,5.3-5.3,8.2-4.7,18.7c0.4,7.8,0.3,9.3-1,13.1c-2,5.5-6.4,11.3-10.7,14c-1.8,1.2-4.8,3.1-6.6,4.2c-4,2.6-6.6,6.8-8.3,13.5
		c-3.1,12.5-12.5,20.9-25.2,22.7c-6.5,0.9-11.2,3.4-14.1,7.4c-5.5,7.4-8.3,10.1-13.6,12.7c-6.6,3.3-12.6,3.9-19.7,2.3
		c-2.8-0.7-6.1-1.2-7.4-1.2c-3.3,0-8.2,1.8-11.2,4.1c-4.7,3.6-10.1,5.5-16.1,5.8C146.5,5120.1,142.7,5119.9,141.2,5119.5z
		 M153.9,5108.2c1.7-0.7,4.2-2,5.5-3c7.2-5.5,15.4-7.1,25.8-5c5.6,1.1,7.2,1.2,10.1,0.4c5-1.3,8.5-3.9,11.7-8.7
		c5-7.5,11.1-11.6,19.4-13.2c13.6-2.7,17.2-5.7,20.1-16.5c2.6-9.9,7.5-16.4,15.4-20.4c4.3-2.3,7.8-5.8,9.5-9.6
		c1.2-2.5,1.3-4.7,1.2-13.5c-0.1-9.8,0-10.8,1.7-14.5c0.9-2.2,3.1-5.7,4.8-7.7c4.9-6,5.7-8,5.7-13.8c0-4.5-0.3-5.8-3.1-10.9
		c-4.7-9.1-5.3-16.7-2-25.8c1.6-4.3,1.5-10.7-0.2-14.4c-0.8-1.7-2.8-4.3-4.5-5.8c-9.8-8.8-11.9-12.7-13.4-24.4
		c-1.5-11.5-4.8-16.4-13.2-19c-9.1-2.8-15.7-8.4-19.6-16.8c-3.1-6.6-5-8.9-9.4-11.3c-3.4-1.8-4.5-2-11.8-2.2
		c-11.2-0.2-15.3-1.8-23.4-9.1c-2.7-2.5-6.1-5-7.4-5.5c-4.2-1.8-10-1.3-16.2,1.3c-5,2-6.4,2.3-12.6,2.3c-6.1,0-7.6-0.3-12.6-2.3
		c-6.2-2.6-12-3.1-16.2-1.3c-1.3,0.6-4.7,3.1-7.4,5.5c-8.1,7.3-12.2,8.9-23.4,9.1c-7.3,0.1-8.5,0.4-11.8,2.2
		c-4.4,2.4-6.3,4.7-9.4,11.3c-3.9,8.4-10.4,14-19.6,16.8c-8.4,2.6-11.7,7.4-13.1,18.9c-1.5,11.7-3.6,15.5-13.4,24.5
		c-1.8,1.6-3.8,4.2-4.5,5.8c-1.7,3.6-1.8,10.1-0.2,14.3c3.3,9.1,2.6,16.7-2,25.8c-2.8,5.2-3.1,6.4-3.1,10.9c0,5.8,0.8,7.8,5.7,13.8
		c1.7,2,3.9,5.5,4.8,7.7c1.7,3.7,1.8,4.7,1.7,14.5c-0.1,8.8,0,11,1.2,13.5c1.7,3.8,5.2,7.3,9.5,9.6c7.8,4,12.8,10.5,15.4,20.4
		c1.7,6.2,3.1,8.7,6.7,11.7c2.9,2.5,4.7,3.1,11.5,4.3c9.5,1.7,15.9,5.8,21.2,13.7c3.3,4.8,6.8,7.4,11.7,8.7
		c2.9,0.8,4.5,0.7,10.1-0.4c10.4-2.1,18.5-0.6,25.8,5C141.6,5109.2,148,5110.2,153.9,5108.2z M62.8,4851.4c0.7-1.9,7.7-6.9,12-8.5
		c3.3-1.3,6-1.7,12.3-1.8c9.5-0.2,11.8-1.1,18.8-7.5c2.4-2.2,6.2-4.9,8.5-6c3.6-1.7,5-1.9,11.6-1.9c6.3,0,7.4-0.1,7.1-1.1
		c-2.6-6.9-27.1-65.6-27.8-66.3c-0.5-0.5-1.4-0.8-2-0.6c-0.6,0.2-4.7,7.5-9.3,16.3c-4.6,8.7-9.4,16.9-10.7,18.2
		c-2.7,2.7-7.3,4.3-10.7,3.6c-1.3-0.2-9.8-2.8-19-5.6c-9.2-2.8-17.1-5-17.7-4.7c-0.7,0.2-1,1-0.8,2c0.5,2.5,26.4,64.7,26.9,64.7
		C62.2,4852.4,62.6,4852,62.8,4851.4z M247.6,4820.9c7.2-17.4,13.2-32.3,13.4-33.2c0.2-1-0.1-1.8-0.7-2c-0.7-0.3-8.5,1.9-17.7,4.7
		c-9.1,2.8-17.7,5.3-19,5.5c-3.6,0.7-8.2-0.8-10.9-3.6c-1.2-1.3-6.1-9.6-10.7-18.3c-4.6-8.7-8.8-16.1-9.4-16.2
		c-0.5-0.2-1.4,0.1-1.9,0.6c-0.7,0.7-25.2,59.5-27.8,66.3c-0.3,0.9,0.7,1.1,7.1,1.1c6.6,0,8,0.2,11.8,2c2.3,1.1,6.3,3.9,8.8,6.2
		c6.6,6.1,8.6,6.9,18.2,7.2c6.3,0.1,9,0.4,12.3,1.8c4.2,1.6,11.2,6.6,12,8.5c0.2,0.6,0.6,1,0.9,1
		C234.3,4852.4,240.3,4838.2,247.6,4820.9z"/>
	<path class="st0" d="M130.4,5080.5c-33.9-6.1-61.8-25.9-78.6-55.9c-5.6-9.9-11.7-29.1-12.1-37.7c-0.1-3.4,0.1-4.2,1.6-5.4
		c2.2-1.8,5.5-1.8,7.2-0.1c0.9,0.9,1.8,3.9,2.6,8.2c7.2,39.7,36.3,69.8,76.7,79.2c4.7,1.1,8.7,1.4,20.4,1.4c13.4,0,15.2-0.1,22.5-2
		c28.8-7.2,52.3-25.9,65.4-52.2c3.3-6.5,7.1-18.2,8.5-26.3c0.8-4.4,1.8-7.4,2.6-8.2c1.7-1.7,5-1.7,7.2,0.1c2.1,1.7,2.1,4.6,0.3,13.4
		c-8.8,42.3-41.8,75.2-85,84.8C162.4,5081.4,138,5081.9,130.4,5080.5z"/>
	<path class="st0" d="M144.7,5050.9c-4.4-1.3-5.8-3.8-13.5-25.2c-4.1-11.2-7.7-20.7-8-21c-0.3-0.3-9.9-0.9-21.3-1.3
		c-11.4-0.4-21.8-0.9-23.1-1.1c-3.4-0.5-7.2-4.2-8.2-7.7c-0.7-2.4-0.5-3.6,0.4-6.2c1.1-2.8,3.1-4.7,19-17.1
		c9.8-7.7,17.8-14.2,17.8-14.4c0-0.3-2.6-9.7-5.8-20.9c-3.2-11.2-5.8-21.7-5.8-23.4c0-6.8,6.8-11.7,13.1-9.6
		c1.5,0.5,10.7,6.3,20.3,12.8c9.7,6.5,18,11.8,18.5,11.8c0.4,0,8.8-5.3,18.5-11.8c9.6-6.5,18.8-12.3,20.3-12.8
		c6.3-2.1,13.1,2.8,13.1,9.6c0,1.6-2.6,12.1-5.8,23.4c-3.2,11.2-5.8,20.7-5.8,20.9c0,0.3,8,6.8,17.7,14.4
		c18.9,14.7,19.9,15.8,19.8,21.5c-0.1,3.1-1.8,5.8-5,8.1c-1.8,1.4-3.5,1.6-18.2,2.1c-8.9,0.3-19.3,0.8-23.1,1.1l-6.9,0.5l-7.4,20.1
		c-4.1,11.1-8,21-8.6,22C154,5050.6,149.1,5052.2,144.7,5050.9z M155.6,5018.7c3.9-10.9,7.8-20.6,8.6-21.5c2.8-3.6,4.2-3.9,26.9-4.7
		c11.8-0.4,21.7-0.9,22.1-1c0.4-0.1-7.1-6.2-16.6-13.6c-9.4-7.4-17.7-14.4-18.3-15.5c-0.7-1-1.2-3.1-1.2-4.7
		c0-1.5,2.6-11.8,5.8-22.8c3.1-11,5.6-20.1,5.5-20.3c-0.1-0.1-8.2,5-17.9,11.5c-9.8,6.6-18.8,12.2-20.1,12.6c-1.7,0.5-3.3,0.5-4.9,0
		c-1.3-0.4-10.4-6.1-20.1-12.6c-9.7-6.5-17.8-11.7-18-11.6c-0.1,0.1,2.4,9.3,5.5,20.3c3.2,11,5.8,21.4,5.8,23s-0.6,3.8-1.3,4.9
		s-9,8-18.3,15.3c-9.3,7.3-16.7,13.4-16.4,13.5c0.4,0.1,10.3,0.5,22.1,0.9c22.7,0.8,24.1,1.1,26.9,4.7c0.8,0.9,4.7,10.7,8.6,21.5
		c3.9,10.9,7.4,19.8,7.7,19.8C148.2,5038.5,151.7,5029.6,155.6,5018.7z"/>
	<path class="st0" d="M41.6,4963.8c-2.4-2.1-2.5-4.9-0.3-14.8c4.7-20.8,14-37.6,29.6-53.2c16.1-16.1,33.5-25.5,56.2-30.4
		c10.6-2.3,31.2-2.3,41.7,0c22.8,4.9,40,14.2,56.2,30.4c15.5,15.5,24.7,32,29.4,53c2.6,11.4,2.6,12.2,0.1,14.7
		c-2.6,2.6-4.5,2.7-6.9,0.5c-1.5-1.4-2-3-3-8.5c-3.1-18.5-12.3-36.6-25.8-50.6c-13.4-14-30.3-23.5-50-28.1c-7.2-1.7-9.7-2-20.9-2
		c-11.2,0-13.8,0.3-20.9,2c-18.5,4.3-33.8,12.5-47.2,25.3c-14.6,13.9-25.3,34-28.6,53.6c-0.9,5.3-1.5,6.9-2.9,8.3
		C45.9,4966,44.2,4966,41.6,4963.8z"/>
</g>
</svg>
