<?xml version="1.0" encoding="utf-8"?>
<!-- Generator: Adobe Illustrator 27.3.1, SVG Export Plug-In . SVG Version: 6.00 Build 0)  -->
<svg version="1.1" id="Layer_1" xmlns="http://www.w3.org/2000/svg" xmlns:xlink="http://www.w3.org/1999/xlink" x="0px" y="0px"
	 viewBox="0 0 47.1 60.97" style="enable-background:new 0 0 47.1 60.97;" xml:space="preserve">
<style type="text/css">
	.st0{fill:#FFFFFF;}
</style>
<g transform="translate(0.000000,128.000000) scale(0.100000,-0.100000)">
	<path class="st0" d="M116.44,1225.04C52.33,1194.29,0,1164.85,0,1160.93c0-4.58,24.86-18.97,54.95-32.71l54.95-24.2l2.62-37.94
		c7.2-104.01,122.33-153.73,202.14-87c26.17,22.24,37.29,45.79,42.52,90.27c3.92,31.4,7.2,37.94,20.28,43.18
		c26.82,9.81,28.13,7.85,28.13-43.18c0-40.56-2.62-52.99-14.39-68.69c-11.12-15.05-12.43-21.59-6.54-27.48
		c5.89-5.89,10.47-5.23,19.62,3.27c11.12,9.81,12.43,9.81,22.9,0c8.5-8.5,13.08-9.16,18.97-3.27c5.89,5.89,4.58,11.78-6.54,27.48
		c-12.43,16.35-14.39,27.48-14.39,74.58v56.26l22.9,9.16c12.43,5.23,22.9,13.74,22.9,18.32c0,6.54-194.94,107.28-234.85,121.02
		C234.19,1280.64,179.9,1256.44,116.44,1225.04z M402.31,1161.58c0-7.2-8.5-15.05-20.93-20.28c-20.28-8.5-21.59-8.5-21.59,5.23
		c0,19.62-5.89,26.82-31.4,39.9c-50.37,25.51-138.03,24.2-191.67-2.62c-18.97-9.81-24.86-17.66-26.82-32.71l-1.96-19.62
		l-32.71,15.05l-32.71,15.05l94.85,45.79l94.85,45.79l85.04-39.9C379.42,1183.82,402.31,1170.09,402.31,1161.58z M310.08,1167.47
		c16.35-6.54,23.55-14.39,23.55-23.55c0-11.78-2.62-12.43-24.2-7.85c-13.74,2.62-47.1,5.23-73.92,5.23s-60.18-2.62-73.27-5.23
		c-22.24-4.58-24.86-3.93-24.86,7.85c0,15.7,2.62,17.66,46.45,30.09C223.73,1185.13,274.1,1182.52,310.08,1167.47z M304.84,1111.21
		c27.48-7.2,28.78-8.5,28.78-32.05c0-33.36-24.86-77.85-52.33-92.24c-67.38-35.98-143.92,11.78-143.92,90.28
		c0,25.51,1.31,26.82,24.86,33.36C196.25,1119.72,269.52,1119.72,304.84,1111.21z"/>
	<path class="st0" d="M94.2,929.35c-15.05-6.54-35.33-23.55-45.79-37.29l-18.97-24.2v-98.78V670.3H235.5h206.06v95.51
		c0,94.2,0,95.51-18.97,122.33c-32.71,47.1-55.6,53.64-187.75,53.64C138.03,941.78,117.1,939.82,94.2,929.35z M295.03,897.95
		c-7.2-10.47-24.86-30.75-37.94-46.45l-24.86-27.47l-41.21,45.79l-41.21,45.79h79.15h79.15L295.03,897.95z M373.53,900.57
		c36.63-24.2,45.14-49.72,45.14-134.1V693.2l-184.48,1.31l-185.13,1.96v68.69c0,37.94,1.96,76.54,4.58,86.35
		c6.54,21.59,41.87,57.57,56.26,57.57c6.54,0,35.98-26.17,65.42-58.88c30.09-32.05,56.91-58.88,58.88-58.88
		c2.62,0,28.13,28.13,56.91,62.15c28.78,34.02,54.3,62.15,56.26,62.15C349.33,915.62,361.1,909.07,373.53,900.57z"/>
</g>
</svg>
