<svg xmlns="http://www.w3.org/2000/svg" version="1.1" xmlns:xlink="http://www.w3.org/1999/xlink" xmlns:svgjs="http://svgjs.dev/svgjs" width="1440" height="560" preserveAspectRatio="none" viewBox="0 0 1440 560"><g mask="url(&quot;#SvgjsMask1060&quot;)" fill="none"><rect width="1440" height="560" x="0" y="0" fill="rgba(88, 11, 87, 1)"></rect><path d="M0,478.044C95.246,482.831,200.455,487.689,276.083,429.594C350.572,372.373,345.045,260.555,390.285,178.237C440.569,86.741,570.227,23.488,556.12,-79.958C542.038,-183.219,399.841,-208.781,327.303,-283.61C260.343,-352.684,231.99,-456.033,147.307,-501.68C54.155,-551.893,-60.128,-580.131,-160.48,-546.545C-260.03,-513.228,-322.828,-416.488,-376.612,-326.336C-423.936,-247.012,-433.283,-155.599,-448.107,-64.428C-463.224,28.544,-499.512,124.666,-464.136,211.964C-428.325,300.335,-341.529,355.288,-258.807,402.711C-179.247,448.321,-91.591,473.441,0,478.044" fill="#390739"></path><path d="M1440 1044.591C1572.302 1072.52 1703.406 1219.365 1821.978 1154.3690000000001 1937.537 1091.025 1873.195 902.546 1922.257 780.239 1967.9589999999998 666.31 2102.199 588.034 2098.375 465.34000000000003 2094.523 341.735 2000.03 235.435 1902.893 158.901 1814.393 89.17099999999999 1696.196 86.56299999999999 1586.27 61.851 1484.014 38.863000000000056 1383.473-3.72199999999998 1281.188 19.136999999999944 1175.6 42.73400000000004 1075.172 101.45100000000002 1012.966 189.973 953.091 275.177 982.954 390.65700000000004 950.563 489.63 908.63 617.761 747.639 728.293 795.546 854.312 842.387 977.5260000000001 1022.863 975.034 1149.285 1012.361 1244.726 1040.54 1342.632 1024.036 1440 1044.591" fill="#770f75"></path></g><defs><mask id="SvgjsMask1060"><rect width="1440" height="560" fill="#ffffff"></rect></mask></defs></svg>