<svg xmlns="http://www.w3.org/2000/svg" version="1.1" xmlns:xlink="http://www.w3.org/1999/xlink" xmlns:svgjs="http://svgjs.dev/svgjs" width="1440" height="560" preserveAspectRatio="none" viewBox="0 0 1440 560"><g mask="url(&quot;#SvgjsMask1062&quot;)" fill="none"><rect width="1440" height="560" x="0" y="0" fill="rgba(88, 11, 87, 1)"></rect><path d="M0,494.904C113.507,521.658,239.827,588.618,340.916,530.476C441.464,472.645,429.497,323.639,479.631,219.04C531.027,111.809,656.159,25.793,639.225,-91.907C622.291,-209.608,485.597,-264.354,398.446,-345.255C321.549,-416.637,259.335,-510.866,158.12,-538.506C57.568,-565.965,-47.469,-530.561,-144.948,-493.648C-236.678,-458.913,-329.134,-414.117,-384.388,-333.075C-437.17,-255.659,-411.143,-152.657,-438.527,-63.051C-472.844,49.24,-609.826,149.504,-565.04,258.045C-520.817,365.224,-358.148,346.081,-251.219,390.905C-165.906,426.667,-90.038,473.681,0,494.904" fill="#390739"></path><path d="M1440 1234.239C1565.182 1215.2150000000001 1611.282 1057.97 1706.086 974.038 1782.475 906.409 1878.65 869.091 1942.409 789.443 2020.96 691.316 2141.25 585.89 2115.244 462.915 2088.866 338.18100000000004 1913.143 318.36400000000003 1823.598 227.611 1742.365 145.28199999999998 1720.792 8.456999999999994 1616.829-42.222999999999956 1508.314-95.12199999999996 1374.905-88.93200000000002 1262.018-46.14999999999998 1152.717-4.726999999999975 1086.636 99.14499999999998 1010.281 187.64600000000002 934.098 275.948 819.609 353.76099999999997 816.41 470.341 813.21 586.984 941.8430000000001 659.321 994.482 763.461 1044.2060000000001 861.835 1040.548 983.606 1116.313 1063.667 1201.875 1154.0810000000001 1316.932 1252.942 1440 1234.239" fill="#770f75"></path></g><defs><mask id="SvgjsMask1062"><rect width="1440" height="560" fill="#ffffff"></rect></mask></defs></svg>