<svg xmlns="http://www.w3.org/2000/svg" version="1.1" xmlns:xlink="http://www.w3.org/1999/xlink" xmlns:svgjs="http://svgjs.dev/svgjs" width="1440" height="560" preserveAspectRatio="none" viewBox="0 0 1440 560"><g mask="url(&quot;#SvgjsMask1001&quot;)" fill="none"><rect width="1440" height="560" x="0" y="0" fill="rgba(1, 65, 111, 1)"></rect><path d="M0,320.931C63.941,312.897,127.555,315.826,187.045,291.047C255.677,262.46,344.878,238.659,367.529,167.845C390.61,95.686,315.628,30.282,293.645,-42.22C275.852,-100.904,286.836,-167.697,250.758,-217.283C213.378,-268.657,155.562,-305.162,93.262,-317.622C33.266,-329.621,-24.453,-300.424,-83.425,-284.12C-143.448,-267.525,-205.266,-258.283,-255.329,-221.244C-313.815,-177.973,-372.825,-126.619,-391.385,-56.273C-410.644,16.722,-386.52,93.545,-356.677,162.889C-326.348,233.362,-290.051,311.1,-219.906,342.181C-151.184,372.631,-74.58,330.302,0,320.931" fill="#013459"></path><path d="M1440 1077.549C1534.203 1063.056 1598.607 982.479 1682.796 937.797 1777.027 887.7850000000001 1907.564 889.808 1964.142 799.367 2020.9940000000001 708.489 1991.251 588.599 1966.495 484.301 1943.3229999999999 386.676 1906.805 285.74 1827.605 224.13799999999998 1752.951 166.07100000000003 1646.576 192.163 1555.982 165.00099999999998 1464.648 137.61700000000002 1388.971 51.76600000000002 1294.445 64.28500000000003 1197.467 77.12900000000002 1126.787 159.252 1059.961 230.69400000000002 990.94 304.483 915.404 382.517 902.98 482.788 890.627 582.488 952.852 672.034 993.9200000000001 763.718 1035.305 856.11 1061.128 962.447 1143.9270000000001 1020.6990000000001 1227.817 1079.7179999999998 1338.622 1093.145 1440 1077.549" fill="#014e85"></path></g><defs><mask id="SvgjsMask1001"><rect width="1440" height="560" fill="#ffffff"></rect></mask></defs></svg>