<svg xmlns="http://www.w3.org/2000/svg" version="1.1" xmlns:xlink="http://www.w3.org/1999/xlink" xmlns:svgjs="http://svgjs.dev/svgjs" width="1440" height="560" preserveAspectRatio="none" viewBox="0 0 1440 560"><g mask="url(&quot;#SvgjsMask1001&quot;)" fill="none"><rect width="1440" height="560" x="0" y="0" fill="rgba(1, 65, 111, 1)"></rect><path d="M0,556.232C104.07,559.463,200.185,503.62,283.674,441.406C363.216,382.133,434.766,306.51,462.806,211.357C489.272,121.545,442.045,30.975,432.053,-62.12C421.586,-159.646,463.311,-271.822,402.673,-348.919C341.994,-426.067,225.221,-418.67,130.73,-445.227C37.489,-471.432,-58.89,-541.867,-147.886,-503.652C-237.68,-465.094,-236.227,-333.995,-300.245,-260.163C-364.296,-186.293,-484.703,-165.994,-519.79,-74.735C-556.228,20.037,-530.608,130.753,-485.524,221.731C-441.141,311.293,-354.887,367.426,-272.575,424.135C-187.712,482.601,-103.003,553.034,0,556.232" fill="#013459"></path><path d="M1440 1211.954C1563.228 1236.321 1703.067 1198.431 1795.938 1113.85 1885.782 1032.026 1890.805 896.448 1916.776 777.736 1937.789 681.685 1953.8319999999999 585.178 1932.6 489.175 1912.3890000000001 397.79200000000003 1861.9470000000001 318.20799999999997 1799.69 248.327 1738.104 179.2 1658.6970000000001 135.803 1577.749 90.87099999999998 1474.418 33.51400000000001 1376.612-73.57500000000005 1260.625-50.89599999999996 1145.577-28.400999999999954 1083.719 98.55900000000003 1023.634 199.21699999999998 971.162 287.121 962.613 388.35699999999997 938.969 487.96299999999997 912.649 598.843 830.209 713.202 876.96 817.1320000000001 923.691 921.018 1071.061 923.5509999999999 1164.328 988.953 1263.099 1058.214 1321.657 1188.5520000000001 1440 1211.954" fill="#014e85"></path></g><defs><mask id="SvgjsMask1001"><rect width="1440" height="560" fill="#ffffff"></rect></mask></defs></svg>