<svg xmlns="http://www.w3.org/2000/svg" version="1.1" xmlns:xlink="http://www.w3.org/1999/xlink" xmlns:svgjs="http://svgjs.dev/svgjs" width="1440" height="560" preserveAspectRatio="none" viewBox="0 0 1440 560"><g mask="url(&quot;#SvgjsMask1000&quot;)" fill="none"><rect width="1440" height="560" x="0" y="0" fill="rgba(1, 65, 111, 1)"></rect><path d="M82.75 67.66L147.71 105.16L147.71 180.16L82.75 217.66L17.8 180.16L17.8 105.16zM147.71 -44.84L212.66 -7.34L212.66 67.66L147.71 105.16L82.75 67.66L82.75 -7.34zM147.71 405.16L212.66 442.66L212.66 517.66L147.71 555.16L82.75 517.66L82.75 442.66zM212.66 517.66L277.62 555.16L277.62 630.16L212.66 667.66L147.71 630.16L147.71 555.16zM277.62 -44.84L342.57 -7.34L342.57 67.66L277.62 105.16L212.66 67.66L212.66 -7.34zM342.57 67.66L407.52 105.16L407.52 180.16L342.57 217.66L277.62 180.16L277.62 105.16zM277.62 405.16L342.57 442.66L342.57 517.66L277.62 555.16L212.66 517.66L212.66 442.66zM342.57 517.66L407.52 555.16L407.52 630.16L342.57 667.66L277.62 630.16L277.62 555.16zM407.52 -44.84L472.48 -7.34L472.48 67.66L407.52 105.16L342.57 67.66L342.57 -7.34zM472.48 517.66L537.43 555.16L537.43 630.16L472.48 667.66L407.52 630.16L407.52 555.16zM602.38 67.66L667.34 105.16L667.34 180.16L602.38 217.66L537.43 180.16L537.43 105.16zM602.38 292.66L667.34 330.16L667.34 405.16L602.38 442.66L537.43 405.16L537.43 330.16zM602.38 517.66L667.34 555.16L667.34 630.16L602.38 667.66L537.43 630.16L537.43 555.16zM667.34 -44.84L732.29 -7.34L732.29 67.66L667.34 105.16L602.38 67.66L602.38 -7.34zM732.29 67.66L797.25 105.16L797.25 180.16L732.29 217.66L667.34 180.16L667.34 105.16zM667.34 180.16L732.29 217.66L732.29 292.66L667.34 330.16L602.38 292.66L602.38 217.66zM732.29 292.66L797.25 330.16L797.25 405.16L732.29 442.66L667.34 405.16L667.34 330.16zM732.29 517.66L797.25 555.16L797.25 630.16L732.29 667.66L667.34 630.16L667.34 555.16zM797.24 -44.84L862.2 -7.34L862.2 67.66L797.24 105.16L732.29 67.66L732.29 -7.34zM862.2 67.66L927.15 105.16L927.15 180.16L862.2 217.66L797.24 180.16L797.24 105.16zM797.24 180.16L862.2 217.66L862.2 292.66L797.24 330.16L732.29 292.66L732.29 217.66zM797.24 405.16L862.2 442.66L862.2 517.66L797.24 555.16L732.29 517.66L732.29 442.66zM992.11 67.66L1057.06 105.16L1057.06 180.16L992.11 217.66L927.15 180.16L927.15 105.16zM927.15 180.16L992.11 217.66L992.11 292.66L927.15 330.16L862.2 292.66L862.2 217.66zM992.11 517.66L1057.06 555.16L1057.06 630.16L992.11 667.66L927.15 630.16L927.15 555.16zM1122.01 67.66L1186.97 105.16L1186.97 180.16L1122.01 217.66L1057.06 180.16L1057.06 105.16zM1057.06 180.16L1122.01 217.66L1122.01 292.66L1057.06 330.16L992.11 292.66L992.11 217.66zM1057.06 405.16L1122.01 442.66L1122.01 517.66L1057.06 555.16L992.11 517.66L992.11 442.66zM1122.01 517.66L1186.97 555.16L1186.97 630.16L1122.01 667.66L1057.06 630.16L1057.06 555.16zM1186.97 180.16L1251.92 217.66L1251.92 292.66L1186.97 330.16L1122.01 292.66L1122.01 217.66zM1251.92 292.66L1316.87 330.16L1316.87 405.16L1251.92 442.66L1186.97 405.16L1186.97 330.16zM1316.88 -44.84L1381.83 -7.34L1381.83 67.66L1316.88 105.16L1251.92 67.66L1251.92 -7.34zM1316.88 405.16L1381.83 442.66L1381.83 517.66L1316.88 555.16L1251.92 517.66L1251.92 442.66zM1446.78 -44.84L1511.74 -7.34L1511.74 67.66L1446.78 105.16L1381.83 67.66L1381.83 -7.34zM1511.74 67.66L1576.69 105.16L1576.69 180.16L1511.74 217.66L1446.78 180.16L1446.78 105.16zM1446.78 180.16L1511.74 217.66L1511.74 292.66L1446.78 330.16L1381.83 292.66L1381.83 217.66zM1511.74 292.66L1576.69 330.16L1576.69 405.16L1511.74 442.66L1446.78 405.16L1446.78 330.16zM1511.74 517.66L1576.69 555.16L1576.69 630.16L1511.74 667.66L1446.78 630.16L1446.78 555.16z" stroke="#03305d" stroke-width="2"></path><path d="M75.25 67.66 a7.5 7.5 0 1 0 15 0 a7.5 7.5 0 1 0 -15 0zM140.21 105.16 a7.5 7.5 0 1 0 15 0 a7.5 7.5 0 1 0 -15 0zM140.21 180.16 a7.5 7.5 0 1 0 15 0 a7.5 7.5 0 1 0 -15 0zM75.25 217.66 a7.5 7.5 0 1 0 15 0 a7.5 7.5 0 1 0 -15 0zM10.3 180.16 a7.5 7.5 0 1 0 15 0 a7.5 7.5 0 1 0 -15 0zM10.3 105.16 a7.5 7.5 0 1 0 15 0 a7.5 7.5 0 1 0 -15 0zM140.21 -44.84 a7.5 7.5 0 1 0 15 0 a7.5 7.5 0 1 0 -15 0zM205.16 -7.34 a7.5 7.5 0 1 0 15 0 a7.5 7.5 0 1 0 -15 0zM205.16 67.66 a7.5 7.5 0 1 0 15 0 a7.5 7.5 0 1 0 -15 0zM75.25 -7.34 a7.5 7.5 0 1 0 15 0 a7.5 7.5 0 1 0 -15 0zM140.21 405.16 a7.5 7.5 0 1 0 15 0 a7.5 7.5 0 1 0 -15 0zM205.16 442.66 a7.5 7.5 0 1 0 15 0 a7.5 7.5 0 1 0 -15 0zM205.16 517.66 a7.5 7.5 0 1 0 15 0 a7.5 7.5 0 1 0 -15 0zM140.21 555.16 a7.5 7.5 0 1 0 15 0 a7.5 7.5 0 1 0 -15 0zM75.25 517.66 a7.5 7.5 0 1 0 15 0 a7.5 7.5 0 1 0 -15 0zM75.25 442.66 a7.5 7.5 0 1 0 15 0 a7.5 7.5 0 1 0 -15 0zM270.12 555.16 a7.5 7.5 0 1 0 15 0 a7.5 7.5 0 1 0 -15 0zM270.12 630.16 a7.5 7.5 0 1 0 15 0 a7.5 7.5 0 1 0 -15 0zM205.16 667.66 a7.5 7.5 0 1 0 15 0 a7.5 7.5 0 1 0 -15 0zM140.21 630.16 a7.5 7.5 0 1 0 15 0 a7.5 7.5 0 1 0 -15 0zM270.12 -44.84 a7.5 7.5 0 1 0 15 0 a7.5 7.5 0 1 0 -15 0zM335.07 -7.34 a7.5 7.5 0 1 0 15 0 a7.5 7.5 0 1 0 -15 0zM335.07 67.66 a7.5 7.5 0 1 0 15 0 a7.5 7.5 0 1 0 -15 0zM270.12 105.16 a7.5 7.5 0 1 0 15 0 a7.5 7.5 0 1 0 -15 0zM400.02 105.16 a7.5 7.5 0 1 0 15 0 a7.5 7.5 0 1 0 -15 0zM400.02 180.16 a7.5 7.5 0 1 0 15 0 a7.5 7.5 0 1 0 -15 0zM335.07 217.66 a7.5 7.5 0 1 0 15 0 a7.5 7.5 0 1 0 -15 0zM270.12 180.16 a7.5 7.5 0 1 0 15 0 a7.5 7.5 0 1 0 -15 0zM270.12 405.16 a7.5 7.5 0 1 0 15 0 a7.5 7.5 0 1 0 -15 0zM335.07 442.66 a7.5 7.5 0 1 0 15 0 a7.5 7.5 0 1 0 -15 0zM335.07 517.66 a7.5 7.5 0 1 0 15 0 a7.5 7.5 0 1 0 -15 0zM400.02 555.16 a7.5 7.5 0 1 0 15 0 a7.5 7.5 0 1 0 -15 0zM400.02 630.16 a7.5 7.5 0 1 0 15 0 a7.5 7.5 0 1 0 -15 0zM335.07 667.66 a7.5 7.5 0 1 0 15 0 a7.5 7.5 0 1 0 -15 0zM400.02 -44.84 a7.5 7.5 0 1 0 15 0 a7.5 7.5 0 1 0 -15 0zM464.98 -7.34 a7.5 7.5 0 1 0 15 0 a7.5 7.5 0 1 0 -15 0zM464.98 67.66 a7.5 7.5 0 1 0 15 0 a7.5 7.5 0 1 0 -15 0zM464.98 517.66 a7.5 7.5 0 1 0 15 0 a7.5 7.5 0 1 0 -15 0zM529.93 555.16 a7.5 7.5 0 1 0 15 0 a7.5 7.5 0 1 0 -15 0zM529.93 630.16 a7.5 7.5 0 1 0 15 0 a7.5 7.5 0 1 0 -15 0zM464.98 667.66 a7.5 7.5 0 1 0 15 0 a7.5 7.5 0 1 0 -15 0zM594.88 67.66 a7.5 7.5 0 1 0 15 0 a7.5 7.5 0 1 0 -15 0zM659.84 105.16 a7.5 7.5 0 1 0 15 0 a7.5 7.5 0 1 0 -15 0zM659.84 180.16 a7.5 7.5 0 1 0 15 0 a7.5 7.5 0 1 0 -15 0zM594.88 217.66 a7.5 7.5 0 1 0 15 0 a7.5 7.5 0 1 0 -15 0zM529.93 180.16 a7.5 7.5 0 1 0 15 0 a7.5 7.5 0 1 0 -15 0zM529.93 105.16 a7.5 7.5 0 1 0 15 0 a7.5 7.5 0 1 0 -15 0zM594.88 292.66 a7.5 7.5 0 1 0 15 0 a7.5 7.5 0 1 0 -15 0zM659.84 330.16 a7.5 7.5 0 1 0 15 0 a7.5 7.5 0 1 0 -15 0zM659.84 405.16 a7.5 7.5 0 1 0 15 0 a7.5 7.5 0 1 0 -15 0zM594.88 442.66 a7.5 7.5 0 1 0 15 0 a7.5 7.5 0 1 0 -15 0zM529.93 405.16 a7.5 7.5 0 1 0 15 0 a7.5 7.5 0 1 0 -15 0zM529.93 330.16 a7.5 7.5 0 1 0 15 0 a7.5 7.5 0 1 0 -15 0zM594.88 517.66 a7.5 7.5 0 1 0 15 0 a7.5 7.5 0 1 0 -15 0zM659.84 555.16 a7.5 7.5 0 1 0 15 0 a7.5 7.5 0 1 0 -15 0zM659.84 630.16 a7.5 7.5 0 1 0 15 0 a7.5 7.5 0 1 0 -15 0zM594.88 667.66 a7.5 7.5 0 1 0 15 0 a7.5 7.5 0 1 0 -15 0zM659.84 -44.84 a7.5 7.5 0 1 0 15 0 a7.5 7.5 0 1 0 -15 0zM724.79 -7.34 a7.5 7.5 0 1 0 15 0 a7.5 7.5 0 1 0 -15 0zM724.79 67.66 a7.5 7.5 0 1 0 15 0 a7.5 7.5 0 1 0 -15 0zM594.88 -7.34 a7.5 7.5 0 1 0 15 0 a7.5 7.5 0 1 0 -15 0zM789.75 105.16 a7.5 7.5 0 1 0 15 0 a7.5 7.5 0 1 0 -15 0zM789.75 180.16 a7.5 7.5 0 1 0 15 0 a7.5 7.5 0 1 0 -15 0zM724.79 217.66 a7.5 7.5 0 1 0 15 0 a7.5 7.5 0 1 0 -15 0zM724.79 292.66 a7.5 7.5 0 1 0 15 0 a7.5 7.5 0 1 0 -15 0zM789.75 330.16 a7.5 7.5 0 1 0 15 0 a7.5 7.5 0 1 0 -15 0zM789.75 405.16 a7.5 7.5 0 1 0 15 0 a7.5 7.5 0 1 0 -15 0zM724.79 442.66 a7.5 7.5 0 1 0 15 0 a7.5 7.5 0 1 0 -15 0zM724.79 517.66 a7.5 7.5 0 1 0 15 0 a7.5 7.5 0 1 0 -15 0zM789.75 555.16 a7.5 7.5 0 1 0 15 0 a7.5 7.5 0 1 0 -15 0zM789.75 630.16 a7.5 7.5 0 1 0 15 0 a7.5 7.5 0 1 0 -15 0zM724.79 667.66 a7.5 7.5 0 1 0 15 0 a7.5 7.5 0 1 0 -15 0zM789.74 -44.84 a7.5 7.5 0 1 0 15 0 a7.5 7.5 0 1 0 -15 0zM854.7 -7.34 a7.5 7.5 0 1 0 15 0 a7.5 7.5 0 1 0 -15 0zM854.7 67.66 a7.5 7.5 0 1 0 15 0 a7.5 7.5 0 1 0 -15 0zM789.74 105.16 a7.5 7.5 0 1 0 15 0 a7.5 7.5 0 1 0 -15 0zM919.65 105.16 a7.5 7.5 0 1 0 15 0 a7.5 7.5 0 1 0 -15 0zM919.65 180.16 a7.5 7.5 0 1 0 15 0 a7.5 7.5 0 1 0 -15 0zM854.7 217.66 a7.5 7.5 0 1 0 15 0 a7.5 7.5 0 1 0 -15 0zM789.74 180.16 a7.5 7.5 0 1 0 15 0 a7.5 7.5 0 1 0 -15 0zM854.7 292.66 a7.5 7.5 0 1 0 15 0 a7.5 7.5 0 1 0 -15 0zM789.74 330.16 a7.5 7.5 0 1 0 15 0 a7.5 7.5 0 1 0 -15 0zM789.74 405.16 a7.5 7.5 0 1 0 15 0 a7.5 7.5 0 1 0 -15 0zM854.7 442.66 a7.5 7.5 0 1 0 15 0 a7.5 7.5 0 1 0 -15 0zM854.7 517.66 a7.5 7.5 0 1 0 15 0 a7.5 7.5 0 1 0 -15 0zM789.74 555.16 a7.5 7.5 0 1 0 15 0 a7.5 7.5 0 1 0 -15 0zM984.61 67.66 a7.5 7.5 0 1 0 15 0 a7.5 7.5 0 1 0 -15 0zM1049.56 105.16 a7.5 7.5 0 1 0 15 0 a7.5 7.5 0 1 0 -15 0zM1049.56 180.16 a7.5 7.5 0 1 0 15 0 a7.5 7.5 0 1 0 -15 0zM984.61 217.66 a7.5 7.5 0 1 0 15 0 a7.5 7.5 0 1 0 -15 0zM984.61 292.66 a7.5 7.5 0 1 0 15 0 a7.5 7.5 0 1 0 -15 0zM919.65 330.16 a7.5 7.5 0 1 0 15 0 a7.5 7.5 0 1 0 -15 0zM984.61 517.66 a7.5 7.5 0 1 0 15 0 a7.5 7.5 0 1 0 -15 0zM1049.56 555.16 a7.5 7.5 0 1 0 15 0 a7.5 7.5 0 1 0 -15 0zM1049.56 630.16 a7.5 7.5 0 1 0 15 0 a7.5 7.5 0 1 0 -15 0zM984.61 667.66 a7.5 7.5 0 1 0 15 0 a7.5 7.5 0 1 0 -15 0zM919.65 630.16 a7.5 7.5 0 1 0 15 0 a7.5 7.5 0 1 0 -15 0zM919.65 555.16 a7.5 7.5 0 1 0 15 0 a7.5 7.5 0 1 0 -15 0zM1114.51 67.66 a7.5 7.5 0 1 0 15 0 a7.5 7.5 0 1 0 -15 0zM1179.47 105.16 a7.5 7.5 0 1 0 15 0 a7.5 7.5 0 1 0 -15 0zM1179.47 180.16 a7.5 7.5 0 1 0 15 0 a7.5 7.5 0 1 0 -15 0zM1114.51 217.66 a7.5 7.5 0 1 0 15 0 a7.5 7.5 0 1 0 -15 0zM1114.51 292.66 a7.5 7.5 0 1 0 15 0 a7.5 7.5 0 1 0 -15 0zM1049.56 330.16 a7.5 7.5 0 1 0 15 0 a7.5 7.5 0 1 0 -15 0zM1049.56 405.16 a7.5 7.5 0 1 0 15 0 a7.5 7.5 0 1 0 -15 0zM1114.51 442.66 a7.5 7.5 0 1 0 15 0 a7.5 7.5 0 1 0 -15 0zM1114.51 517.66 a7.5 7.5 0 1 0 15 0 a7.5 7.5 0 1 0 -15 0zM984.61 442.66 a7.5 7.5 0 1 0 15 0 a7.5 7.5 0 1 0 -15 0zM1179.47 555.16 a7.5 7.5 0 1 0 15 0 a7.5 7.5 0 1 0 -15 0zM1179.47 630.16 a7.5 7.5 0 1 0 15 0 a7.5 7.5 0 1 0 -15 0zM1114.51 667.66 a7.5 7.5 0 1 0 15 0 a7.5 7.5 0 1 0 -15 0zM1244.42 217.66 a7.5 7.5 0 1 0 15 0 a7.5 7.5 0 1 0 -15 0zM1244.42 292.66 a7.5 7.5 0 1 0 15 0 a7.5 7.5 0 1 0 -15 0zM1179.47 330.16 a7.5 7.5 0 1 0 15 0 a7.5 7.5 0 1 0 -15 0zM1309.37 330.16 a7.5 7.5 0 1 0 15 0 a7.5 7.5 0 1 0 -15 0zM1309.37 405.16 a7.5 7.5 0 1 0 15 0 a7.5 7.5 0 1 0 -15 0zM1244.42 442.66 a7.5 7.5 0 1 0 15 0 a7.5 7.5 0 1 0 -15 0zM1179.47 405.16 a7.5 7.5 0 1 0 15 0 a7.5 7.5 0 1 0 -15 0zM1309.38 -44.84 a7.5 7.5 0 1 0 15 0 a7.5 7.5 0 1 0 -15 0zM1374.33 -7.34 a7.5 7.5 0 1 0 15 0 a7.5 7.5 0 1 0 -15 0zM1374.33 67.66 a7.5 7.5 0 1 0 15 0 a7.5 7.5 0 1 0 -15 0zM1309.38 105.16 a7.5 7.5 0 1 0 15 0 a7.5 7.5 0 1 0 -15 0zM1244.42 67.66 a7.5 7.5 0 1 0 15 0 a7.5 7.5 0 1 0 -15 0zM1244.42 -7.34 a7.5 7.5 0 1 0 15 0 a7.5 7.5 0 1 0 -15 0zM1309.38 405.16 a7.5 7.5 0 1 0 15 0 a7.5 7.5 0 1 0 -15 0zM1374.33 442.66 a7.5 7.5 0 1 0 15 0 a7.5 7.5 0 1 0 -15 0zM1374.33 517.66 a7.5 7.5 0 1 0 15 0 a7.5 7.5 0 1 0 -15 0zM1309.38 555.16 a7.5 7.5 0 1 0 15 0 a7.5 7.5 0 1 0 -15 0zM1244.42 517.66 a7.5 7.5 0 1 0 15 0 a7.5 7.5 0 1 0 -15 0zM1439.28 -44.84 a7.5 7.5 0 1 0 15 0 a7.5 7.5 0 1 0 -15 0zM1504.24 -7.34 a7.5 7.5 0 1 0 15 0 a7.5 7.5 0 1 0 -15 0zM1504.24 67.66 a7.5 7.5 0 1 0 15 0 a7.5 7.5 0 1 0 -15 0zM1439.28 105.16 a7.5 7.5 0 1 0 15 0 a7.5 7.5 0 1 0 -15 0zM1569.19 105.16 a7.5 7.5 0 1 0 15 0 a7.5 7.5 0 1 0 -15 0zM1569.19 180.16 a7.5 7.5 0 1 0 15 0 a7.5 7.5 0 1 0 -15 0zM1504.24 217.66 a7.5 7.5 0 1 0 15 0 a7.5 7.5 0 1 0 -15 0zM1439.28 180.16 a7.5 7.5 0 1 0 15 0 a7.5 7.5 0 1 0 -15 0zM1504.24 292.66 a7.5 7.5 0 1 0 15 0 a7.5 7.5 0 1 0 -15 0zM1439.28 330.16 a7.5 7.5 0 1 0 15 0 a7.5 7.5 0 1 0 -15 0zM1374.33 292.66 a7.5 7.5 0 1 0 15 0 a7.5 7.5 0 1 0 -15 0zM1374.33 217.66 a7.5 7.5 0 1 0 15 0 a7.5 7.5 0 1 0 -15 0zM1569.19 330.16 a7.5 7.5 0 1 0 15 0 a7.5 7.5 0 1 0 -15 0zM1569.19 405.16 a7.5 7.5 0 1 0 15 0 a7.5 7.5 0 1 0 -15 0zM1504.24 442.66 a7.5 7.5 0 1 0 15 0 a7.5 7.5 0 1 0 -15 0zM1439.28 405.16 a7.5 7.5 0 1 0 15 0 a7.5 7.5 0 1 0 -15 0zM1504.24 517.66 a7.5 7.5 0 1 0 15 0 a7.5 7.5 0 1 0 -15 0zM1569.19 555.16 a7.5 7.5 0 1 0 15 0 a7.5 7.5 0 1 0 -15 0zM1569.19 630.16 a7.5 7.5 0 1 0 15 0 a7.5 7.5 0 1 0 -15 0zM1504.24 667.66 a7.5 7.5 0 1 0 15 0 a7.5 7.5 0 1 0 -15 0zM1439.28 630.16 a7.5 7.5 0 1 0 15 0 a7.5 7.5 0 1 0 -15 0zM1439.28 555.16 a7.5 7.5 0 1 0 15 0 a7.5 7.5 0 1 0 -15 0z" fill="#03305d"></path><path d="M19.37 -0.89L62.67 24.11L62.67 74.11L19.37 99.11L-23.93 74.11L-23.93 24.11zM105.98 449.11L149.28 474.11L149.28 524.11L105.98 549.11L62.67 524.11L62.67 474.11zM235.88 74.11L279.19 99.11L279.19 149.11L235.88 174.11L192.58 149.11L192.58 99.11zM235.88 374.11L279.19 399.11L279.19 449.11L235.88 474.11L192.58 449.11L192.58 399.11zM409.09 374.11L452.4 399.11L452.4 449.11L409.09 474.11L365.79 449.11L365.79 399.11zM495.7 374.11L539 399.11L539 449.11L495.7 474.11L452.4 449.11L452.4 399.11zM452.4 449.11L495.7 474.11L495.7 524.11L452.4 549.11L409.09 524.11L409.09 474.11zM582.3 74.11L625.61 99.11L625.61 149.11L582.3 174.11L539 149.11L539 99.11zM712.21 -0.89L755.51 24.11L755.51 74.11L712.21 99.11L668.91 74.11L668.91 24.11zM712.21 149.11L755.51 174.11L755.51 224.11L712.21 249.11L668.91 224.11L668.91 174.11zM798.82 299.11L842.12 324.11L842.12 374.11L798.82 399.11L755.51 374.11L755.51 324.11zM842.12 374.11L885.42 399.11L885.42 449.11L842.12 474.11L798.82 449.11L798.82 399.11zM928.72 374.11L972.03 399.11L972.03 449.11L928.72 474.11L885.42 449.11L885.42 399.11zM885.42 449.11L928.72 474.11L928.72 524.11L885.42 549.11L842.12 524.11L842.12 474.11zM1058.63 -0.89L1101.93 24.11L1101.93 74.11L1058.63 99.11L1015.33 74.11L1015.33 24.11zM1188.54 374.11L1231.84 399.11L1231.84 449.11L1188.54 474.11L1145.23 449.11L1145.23 399.11zM1318.44 299.11L1361.75 324.11L1361.75 374.11L1318.44 399.11L1275.14 374.11L1275.14 324.11z" stroke="rgba(6, 80, 156, 0.93)" stroke-width="2"></path></g><defs><mask id="SvgjsMask1000"><rect width="1440" height="560" fill="#ffffff"></rect></mask></defs></svg>