<svg xmlns="http://www.w3.org/2000/svg" version="1.1" xmlns:xlink="http://www.w3.org/1999/xlink" xmlns:svgjs="http://svgjs.dev/svgjs" width="1440" height="560" preserveAspectRatio="none" viewBox="0 0 1440 560"><g mask="url(&quot;#SvgjsMask1008&quot;)" fill="none"><rect width="1440" height="560" x="0" y="0" fill="rgba(88, 11, 87, 1)"></rect><path d="M280 135.76C278.38 135.76 278.06 138.04 278.06 140C278.06 141.18 278.76 142.03 280 142.03C283.23 142.03 287 141.48 287 140C287 138.34 282.85 135.76 280 135.76" stroke="rgba(211, 211, 211, 1)" stroke-width="2"></path><path d="M518.64 0C546.39 9.88 536.41 49.86 560 49.86C590.18 49.86 589.16 13.18 626.18 0C659.16 -11.75 663.09 0 700 0C746.13 0 769.55 -27.58 792.27 0C827.2 42.42 801.73 70.41 815.29 140C825.6 192.91 829.9 245 840 245C849.94 245 828.59 182.56 855.37 140C898.59 71.32 916.57 22.53 980 22.53C1046.12 22.53 1048.54 80.19 1114.47 140C1118.54 143.7 1117.09 149.55 1120 149.55C1123.03 149.55 1124.26 145.33 1126.36 140C1153.66 70.55 1135.5 45.36 1178.8 0C1202.32 -24.64 1219.4 0 1260 0C1330 0 1330 0 1400 0C1470 0 1505 -35 1540 0C1575 35 1540 70 1540 140C1540 210 1540 210 1540 280C1540 331.15 1551.3 335.48 1540 382.31C1534.41 405.48 1506.21 402.69 1506.21 420C1506.21 434.6 1535.39 427.03 1540 446.13C1552.29 497.03 1571.4 534.46 1540 560C1501.4 591.4 1470 560 1400 560C1333.34 560 1288.61 593.41 1266.67 560C1242.64 523.41 1310.4 482.97 1308.06 420C1307.06 393.1 1282.79 380.25 1260 380.25C1240.04 380.25 1222.85 395.34 1222.56 420C1221.79 485.21 1284.11 524.19 1257.88 560C1232.83 594.19 1188.94 560 1120 560C1050 560 1050 560 980 560C910 560 910 560 840 560C770 560 770 560 700 560C630 560 630 560 560 560C490 560 490 560 420 560C359.76 560 358.3 565.11 299.53 560C288.3 559.02 290.86 547.83 280 547.83C251.1 547.83 250.35 557.36 220 560C180.35 563.45 180 560 140 560C70 560 35 595 0 560C-35 525 0 490 0 420C0 350 0 350 0 280C0 210 0 210 0 140C0 70 -35 35 0 0C35 -35 70 0 140 0C210 0 210 0 280 0C350 0 350 0 420 0C469.32 0 476.39 -15.05 518.64 0" stroke="rgba(211, 211, 211, 1)" stroke-width="2"></path><path d="M420 299.31C380.31 308.54 380.23 362.61 380.23 420C380.23 451.18 390.59 471.12 420 476.45C480.48 487.4 493.68 473.01 560 452.56C585.22 444.78 603.08 437.61 603.08 420C603.08 400.43 584.89 394.62 560 378.21C493.35 334.27 470.19 287.64 420 299.31" stroke="rgba(211, 211, 211, 1)" stroke-width="2"></path><path d="M11.2 140C30.96 74.74 70.14 76.7 140 32.67C181.2 6.7 185.77 11.1 233.33 0C255.77 -5.24 256.66 0 280 0C350 0 350 0 420 0C449.43 0 456.7 -15.48 478.86 0C526.7 33.42 513.72 97.81 560 97.81C619.2 97.81 623.95 46.02 689.82 0C693.95 -2.88 694.91 0 700 0C706.37 0 710.84 -5.68 712.73 0C734.17 64.32 731.16 69.68 746.67 140C762.03 209.68 749.87 214.11 774.47 280C796.54 339.11 810.98 390 840 390C867.08 390 873.33 337.46 886.67 280C902.35 212.46 872.15 200.29 898.05 140C918.82 91.67 938.29 62.76 980 62.76C1023.48 62.76 1031.12 95.69 1068.42 140C1101.12 178.85 1092.8 229.09 1120 229.09C1148.29 229.09 1153.2 186.57 1179.39 140C1217.6 72.03 1211.19 65.32 1248.8 0C1251.5 -4.68 1254.4 0 1260 0C1330 0 1330 0 1400 0C1470 0 1505 -35 1540 0C1575 35 1540 70 1540 140C1540 210 1540 210 1540 280C1540 297.5 1549.36 301.08 1540 315C1502.29 371.08 1445.86 371.79 1445.86 420C1445.86 460.69 1509.92 448.06 1540 492.8C1556.99 518.06 1561.72 548.12 1540 560C1500.26 581.72 1471.97 571.44 1417.07 560C1401.97 556.85 1406.33 546.44 1400 530.83C1377.95 476.44 1393.54 466.02 1360.3 420C1323.54 369.12 1307.57 337.04 1260 337.04C1218.35 337.04 1194.14 370.34 1181.86 420C1166.57 481.82 1224.2 516.2 1204.85 560C1193.27 586.2 1162.43 560 1120 560C1070 560 1062.25 575.72 1020 560C992.25 549.68 1007.75 523.02 980 507.91C917.75 474.02 911.01 466.09 840 462C771.01 458.03 757.76 505.04 700 491.79C666.22 484.04 683.71 451.73 656.92 420C613.71 368.82 611.69 368.91 560 325.97C527.42 298.91 508.7 314.37 488.37 280C453.7 221.38 477.42 203.99 450 140C443.24 124.22 435.01 130.21 420 120.47C350.01 75.06 335.16 24.05 280 29.7C239.88 33.81 229.44 89.12 229.44 140C229.44 170.64 253.76 167.35 280 192.75C326.07 237.35 359.82 226.46 374.06 280C390.04 340.08 368.44 355.4 340.45 420C321.41 463.95 313.9 497.1 280 497.1C239.34 497.1 231.84 462.11 191.33 420C161.84 389.34 166.39 351.56 140 351.56C112.72 351.56 112.43 386.14 84 420C42.43 469.51 23.86 518.3 0 518.3C-18.14 518.3 0 469.15 0 420C0 376.41 -16.6 368.51 0 332.83C15.96 298.51 63.11 314.57 65.12 280C68.71 218.15 -6.48 198.4 11.2 140" stroke="rgba(211, 211, 211, 1)" stroke-width="2"></path><path d="M1400 49C1368.42 49 1364.31 97.65 1364.31 140C1364.31 163.37 1376.49 180.44 1400 180.44C1459.34 180.44 1530 170.35 1530 140C1530 104.63 1451.27 49 1400 49" stroke="rgba(211, 211, 211, 1)" stroke-width="2"></path><path d="M380.93 560C380.93 552.56 397.95 541.12 420 532.9C487.48 507.75 494.6 485.74 560 493.26C612.43 499.29 655.67 541.67 655.67 560C655.67 575.04 607.84 560 560 560C490 560 490 560 420 560C400.47 560 380.93 566.11 380.93 560" stroke="rgba(211, 211, 211, 1)" stroke-width="2"></path><path d="M81.2 140C81.2 108.85 112.83 91 140 91C162.64 91 180.83 111.52 180.83 140C180.83 199.93 164.32 267.83 140 267.83C114.5 267.83 81.2 197.26 81.2 140" stroke="rgba(211, 211, 211, 1)" stroke-width="2"></path><path d="M420 39.07C397.06 39.07 364 10.73 364 0C364 -8.8 392 0 420 0C429.54 0 439.09 -5.96 439.09 0C439.09 13.58 434.61 39.07 420 39.07" stroke="rgba(211, 211, 211, 1)" stroke-width="2"></path><path d="M940.73 140C946.34 115.38 960.02 102.99 980 102.99C1000.84 102.99 1009.39 115.81 1022.37 140C1056.89 204.31 1042.17 213.67 1075 280C1090.99 312.3 1104.77 305.05 1120 337.27C1137.85 375.05 1135.14 377.88 1141.16 420C1151.05 489.25 1160.45 502.93 1151.82 560C1149.87 572.93 1135.91 560 1120 560C1101.25 560 1095.25 572.16 1082.5 560C1025.25 505.42 1033.22 490.84 980 426.51C975.31 420.84 968.57 426.9 966.67 420C948.42 353.65 946.24 350.64 939.7 280C933.27 210.64 926.19 203.88 940.73 140" stroke="rgba(211, 211, 211, 1)" stroke-width="2"></path><path d="M1232.42 140C1242.08 111.63 1244.71 86.47 1260 86.47C1276.34 86.47 1275.4 115.11 1295.69 140C1345.4 200.99 1342.48 206.56 1400 258.22C1420.43 276.56 1451.58 261.54 1451.58 280C1451.58 310.12 1435.82 352.79 1400 355.38C1340.03 359.71 1331.48 320 1260 293.83C1228.54 282.31 1198.49 304.37 1194.12 280C1184.7 227.45 1209.14 208.39 1232.42 140" stroke="rgba(211, 211, 211, 1)" stroke-width="2"></path><path d="M154 280C160.61 241.5 221.33 243.48 280 243.48C304.02 243.48 316.53 255.69 319.38 280C326.87 343.95 316.59 352.77 300.68 420C296.9 435.96 291.6 446.38 280 446.38C266.09 446.38 261.74 435.94 249.67 420C198.74 352.75 145.45 329.76 154 280" stroke="rgba(211, 211, 211, 1)" stroke-width="2"></path><path d="M0 398.87C5.92 398.87 20.36 409.13 20.36 420C20.36 431.61 5.78 443.83 0 443.83C-4.4 443.83 0 431.91 0 420C0 409.43 -4.26 398.87 0 398.87" stroke="rgba(211, 211, 211, 1)" stroke-width="2"></path><path d="M482.76 560C482.76 553.31 523.24 533.95 560 533.95C580.53 533.95 597.33 552.84 597.33 560C597.33 565.87 578.66 560 560 560C521.38 560 482.76 566.34 482.76 560" stroke="rgba(211, 211, 211, 1)" stroke-width="2"></path><path d="M1502.44 560C1502.44 554.53 1527.31 539.47 1540 539.47C1546.09 539.47 1546.64 556.37 1540 560C1527.86 566.64 1502.44 564.8 1502.44 560" stroke="rgba(211, 211, 211, 1)" stroke-width="2"></path></g><defs><mask id="SvgjsMask1008"><rect width="1440" height="560" fill="#ffffff"></rect></mask></defs></svg>