<svg xmlns="http://www.w3.org/2000/svg" version="1.1" xmlns:xlink="http://www.w3.org/1999/xlink" xmlns:svgjs="http://svgjs.dev/svgjs" width="1440" height="560" preserveAspectRatio="none" viewBox="0 0 1440 560"><g mask="url(&quot;#SvgjsMask1001&quot;)" fill="none"><rect width="1440" height="560" x="0" y="0" fill="rgba(1, 65, 111, 1)"></rect><path d="M359.28 596.93C561.3 570.74 678.75 109.06 1011 107.8 1343.25 106.54 1490.01 334.08 1662.72 337.4" stroke="rgba(51,121,194,0.58)" stroke-width="2"></path><path d="M253.38 640.12C375.69 635.6 474.35 440.05 700.06 439.71 925.77 439.37 923.4 509.71 1146.74 509.71 1370.08 509.71 1480.39 439.92 1593.42 439.71" stroke="rgba(51,121,194,0.58)" stroke-width="2"></path><path d="M837.1 590.28C972.68 561.17 999.7 229.45 1238.02 206.98 1476.33 184.51 1532.78 68.97 1638.93 66.98" stroke="rgba(51,121,194,0.58)" stroke-width="2"></path><path d="M420.44 613.29C572.62 560.13 595 123.33 823.35 109.87 1051.7 96.41 1024.81 179.87 1226.27 179.87 1427.72 179.87 1526.94 110.13 1629.18 109.87" stroke="rgba(51,121,194,0.58)" stroke-width="2"></path><path d="M420.61 666.47C534.05 648.92 507.89 376.71 776.65 376.51 1045.41 376.31 1305.83 543.38 1488.73 544.51" stroke="rgba(51,121,194,0.58)" stroke-width="2"></path></g><defs><mask id="SvgjsMask1001"><rect width="1440" height="560" fill="#ffffff"></rect></mask></defs></svg>