<svg xmlns="http://www.w3.org/2000/svg" version="1.1" xmlns:xlink="http://www.w3.org/1999/xlink" xmlns:svgjs="http://svgjs.dev/svgjs" width="1440" height="560" preserveAspectRatio="none" viewBox="0 0 1440 560"><g mask="url(&quot;#SvgjsMask1002&quot;)" fill="none"><rect width="1440" height="560" x="0" y="0" fill="rgba(88, 11, 87, 1)"></rect><path d="M359.5 589.28C510.04 586.09 622.25 390.37 925.35 382.92 1228.44 375.47 1338.59 157.64 1491.19 153.32" stroke="rgba(255, 255, 255, 0.58)" stroke-width="2"></path><path d="M749.68 592.83C901.29 561.21 970.77 168.87 1200.6 168.02 1430.43 167.17 1523.3 406.56 1651.52 414.42" stroke="rgba(255, 255, 255, 0.58)" stroke-width="2"></path><path d="M159.49 564.33C328.42 516.64 369.63 54.96 630.42 43.55 891.21 32.14 865.89 113.55 1101.35 113.55 1336.82 113.55 1453.25 43.74 1572.28 43.55" stroke="rgba(255, 255, 255, 0.58)" stroke-width="2"></path><path d="M748.73 575.05C866.79 571.19 943.15 399.2 1183.09 389.07 1423.02 378.94 1495.43 171.54 1617.44 165.07" stroke="rgba(255, 255, 255, 0.58)" stroke-width="2"></path><path d="M483.47 608.11C653.83 596.01 752.2 276.54 1074.46 265.44 1396.72 254.34 1511.47 93.62 1665.45 91.84" stroke="rgba(255, 255, 255, 0.58)" stroke-width="2"></path></g><defs><mask id="SvgjsMask1002"><rect width="1440" height="560" fill="#ffffff"></rect></mask></defs></svg>