<svg xmlns="http://www.w3.org/2000/svg" version="1.1" xmlns:xlink="http://www.w3.org/1999/xlink" xmlns:svgjs="http://svgjs.dev/svgjs" width="1440" height="560" preserveAspectRatio="none" viewBox="0 0 1440 560"><g mask="url(&quot;#SvgjsMask1003&quot;)" fill="none"><rect width="1440" height="560" x="0" y="0" fill="rgba(1, 65, 111, 1)"></rect><path d="M0,509.038C109.542,536.722,229.692,564.547,332.005,516.611C437.841,467.024,500.212,356.916,550.185,251.261C600.655,144.555,657.653,22.411,618.405,-88.913C579.641,-198.865,432.462,-220.531,353.585,-306.383C278.169,-388.468,272.903,-535.682,169.556,-577.454C66.619,-619.06,-51.627,-561.864,-149.691,-509.801C-236.122,-463.914,-279.338,-371.164,-348.812,-302.248C-425.648,-226.029,-540.21,-184.136,-579.612,-83.336C-622.112,25.388,-638.306,166.08,-568.436,259.596C-497.582,354.43,-347.63,324.677,-239.228,372.246C-153.373,409.921,-90.9,486.065,0,509.038" fill="#013459"></path><path d="M1440 1263.114C1568.696 1276.2269999999999 1673.695 1156.996 1764.375 1064.737 1841.876 985.886 1882.005 882.7139999999999 1916.978 777.829 1948.729 682.608 1960.158 585.936 1957.487 485.597 1954.5030000000002 373.491 1970.9940000000001 248.19099999999997 1900.557 160.925 1829.776 73.233 1705.396 52.75200000000001 1594.056 35.333999999999946 1493.001 19.524999999999977 1396.49 53.42399999999998 1295.006 66.195 1170.798 81.82600000000002 1031.768 44.750999999999976 930.828 118.80000000000001 825.247 196.25400000000002 758.403 330.727 755.945 461.648 753.558 588.771 842.538 696.079 918.068 798.358 981.379 884.091 1075.901 931.8240000000001 1155.495 1002.6990000000001 1253.495 1089.964 1309.454 1249.813 1440 1263.114" fill="#014e85"></path></g><defs><mask id="SvgjsMask1003"><rect width="1440" height="560" fill="#ffffff"></rect></mask></defs></svg>